<svg xmlns="http://www.w3.org/2000/svg" viewBox="0 0 96 96" fill="none">
  <defs>
    <linearGradient id="ring" x1="12" y1="14" x2="84" y2="82" gradientUnits="userSpaceOnUse">
      <stop stop-color="#F8FAFC"/>
      <stop offset="1" stop-color="#C7D2FE"/>
    </linearGradient>
  </defs>
  <circle cx="48" cy="40" r="31" stroke="url(#ring)" stroke-width="6"/>
  <path
    d="M35 71C29.477 71 25 66.523 25 61V49.8C25 47.701 26.701 46 28.8 46C30.899 46 32.6 47.701 32.6 49.8V54.2H33.4V35.4C33.4 33.299 35.101 31.6 37.2 31.6C39.299 31.6 41 33.299 41 35.4V43.2H41.8V31.6C41.8 29.501 43.501 27.8 45.6 27.8C47.699 27.8 49.4 29.501 49.4 31.6V43.2H50.2V34.6C50.2 32.501 51.901 30.8 54 30.8C56.099 30.8 57.8 32.501 57.8 34.6V46H58.6V39.6C58.6 37.501 60.301 35.8 62.4 35.8C64.499 35.8 66.2 37.501 66.2 39.6V60.4C66.2 66.144 61.544 70.8 55.8 70.8L35 71Z"
    fill="#F8FAFC"
  />
  <path
    d="M48.001 56.6C46.915 55.47 46.205 54.74 45.1 53.76C43.965 52.73 42.3 52.96 41.44 54.09C40.58 55.22 40.75 56.84 41.82 57.8C43.55 59.35 45.45 61.2 48 63.8C50.55 61.2 52.45 59.35 54.18 57.8C55.25 56.84 55.42 55.22 54.56 54.09C53.7 52.96 52.035 52.73 50.9 53.76C49.797 54.74 49.087 55.47 48.001 56.6Z"
    fill="#1E3A8A"
  />
  <rect x="45.9" y="64" width="4.2" height="11" rx="2.1" fill="#F8FAFC"/>
</svg>
